<svg width="20" height="20" viewBox="0 0 20 20" fill="none" xmlns="http://www.w3.org/2000/svg">
<path d="M19.9905 10.1868C19.9905 9.36743 19.9224 8.76949 19.7752 8.14941H10.1992V11.8477H15.8201C15.7068 12.7668 15.0949 14.1509 13.7349 15.081L13.7159 15.2048L16.7436 17.4967L16.9534 17.5171C18.8799 15.7787 19.9905 13.2208 19.9905 10.1868Z" fill="#4285F4"/>
<path d="M10.1992 19.9312C12.953 19.9312 15.2648 19.0453 16.9534 17.5173L13.7349 15.0812C12.8737 15.6681 11.7177 16.0777 10.1992 16.0777C7.50212 16.0777 5.21298 14.3393 4.39697 11.9365L4.27736 11.9464L1.12908 14.3271L1.08791 14.439C2.76509 17.6944 6.21017 19.9312 10.1992 19.9312Z" fill="#34A853"/>
<path d="M4.39695 11.9363C4.18164 11.3163 4.05703 10.6518 4.05703 9.96535C4.05703 9.27878 4.18164 8.61443 4.38562 7.99435L4.37992 7.86229L1.19219 5.44336L1.08789 5.49183C0.396641 6.84275 0 8.35977 0 9.96535C0 11.5709 0.396641 13.0879 1.08789 14.4388L4.39695 11.9363Z" fill="#FBBC05"/>
<path d="M10.1992 3.85336C12.1144 3.85336 13.4063 4.66168 14.1429 5.33718L17.0213 2.59107C15.2535 0.985496 12.953 0 10.1992 0C6.21017 0 2.76509 2.23672 1.08791 5.49214L4.38564 7.99466C5.21298 5.59183 7.50212 3.85336 10.1992 3.85336Z" fill="#EB4335"/>
</svg>
