<svg width="48" height="48" viewBox="0 0 48 48" fill="none" xmlns="http://www.w3.org/2000/svg">
<g clip-path="url(#clip0_284:2611)">
<path fill-rule="evenodd" clip-rule="evenodd" d="M15.1682 23.5788C14.0701 24.2128 13.2687 25.2572 12.9405 26.482C12.6123 27.7069 12.7841 29.0119 13.4182 30.1101C14.0522 31.2083 15.0965 32.0096 16.3214 32.3378C17.5462 32.666 18.8513 32.4942 19.9495 31.8602L23.208 29.9789C23.9702 29.5388 24.945 29.8 25.3851 30.5622C25.8252 31.3245 25.564 32.2992 24.8017 32.7393L21.5432 34.6206C19.7129 35.6774 17.5378 35.9637 15.4964 35.4167C13.455 34.8697 11.7144 33.5342 10.6577 31.7039C9.60099 29.8736 9.31463 27.6985 9.86163 25.657C10.4086 23.6156 11.7442 21.8751 13.5745 20.8184L16.7611 18.9786C17.5234 18.5385 18.4981 18.7996 18.9382 19.5619C19.3783 20.3242 19.1171 21.2989 18.3548 21.739L15.1682 23.5788ZM22.6867 17.3977C22.2466 16.6355 22.5077 15.6607 23.27 15.2206L26.4566 13.3809C28.2869 12.3241 30.462 12.0378 32.5034 12.5848C34.5449 13.1318 36.2854 14.4673 37.3421 16.2976C38.3988 18.1279 38.6852 20.303 38.1382 22.3445C37.5912 24.3859 36.2557 26.1264 34.4254 27.1831L31.1669 29.0644C30.4046 29.5045 29.4299 29.2434 28.9898 28.4811C28.5497 27.7188 28.8108 26.7441 29.5731 26.304L32.8316 24.4227C33.9298 23.7886 34.7311 22.7443 35.0593 21.5195C35.3875 20.2946 35.2157 18.9896 34.5817 17.8914C33.9476 16.7932 32.9033 15.9919 31.6785 15.6637C30.4536 15.3355 29.1485 15.5073 28.0504 16.1413L24.8638 17.9811C24.1015 18.4212 23.1268 18.16 22.6867 17.3977ZM17.6204 27.684C17.1803 26.9217 17.4415 25.947 18.2037 25.5069L28.3174 19.6678C29.0796 19.2277 30.0544 19.4888 30.4945 20.2511C30.9346 21.0134 30.6734 21.9881 29.9111 22.4282L19.7975 28.2673C19.0352 28.7074 18.0605 28.4463 17.6204 27.684Z" fill="#373737"/>
</g>
<defs>
<clipPath id="clip0_284:2611">
<rect width="34" height="34" fill="white" transform="translate(0.777344 17.7773) rotate(-30)"/>
</clipPath>
</defs>
</svg>
