<svg width="40" height="40" viewBox="0 0 40 40" fill="none" xmlns="http://www.w3.org/2000/svg">
<circle cx="20" cy="20" r="20" fill="#52525C"/>
<path d="M25 10H15C12.24 10 10 12.23 10 14.98V20.96V21.96C10 24.71 12.24 26.94 15 26.94H16.5C16.77 26.94 17.13 27.12 17.3 27.34L18.8 29.33C19.46 30.21 20.54 30.21 21.2 29.33L22.7 27.34C22.89 27.09 23.19 26.94 23.5 26.94H25C27.76 26.94 30 24.71 30 21.96V14.98C30 12.23 27.76 10 25 10ZM23.66 22.53C23.51 22.68 23.32 22.75 23.13 22.75C22.94 22.75 22.75 22.68 22.6 22.53L21.86 21.79C21.28 22.17 20.58 22.4 19.83 22.4C17.79 22.4 16.13 20.74 16.13 18.7C16.13 16.66 17.78 15 19.83 15C21.88 15 23.53 16.66 23.53 18.7C23.53 19.45 23.3 20.15 22.92 20.73L23.66 21.47C23.95 21.76 23.95 22.24 23.66 22.53Z" fill="white"/>
</svg>
