<svg width="16" height="16" viewBox="0 0 16 16" fill="none" xmlns="http://www.w3.org/2000/svg">
<path d="M8.86667 5.40655L9.74668 7.16655C9.86667 7.40655 10.1867 7.64655 10.4533 7.68655L12.0467 7.95322C13.0667 8.12655 13.3067 8.85989 12.5733 9.59322L11.3333 10.8399C11.1267 11.0466 11.0067 11.4532 11.0733 11.7466L11.4267 13.2866C11.7067 14.4999 11.06 14.9732 9.98667 14.3399L8.49334 13.4532C8.22001 13.2932 7.78001 13.2932 7.50667 13.4532L6.00667 14.3332C4.93334 14.9666 4.28667 14.4932 4.56667 13.2799L4.92001 11.7399C4.98667 11.4532 4.86667 11.0466 4.66001 10.8332L3.42667 9.59988C2.69334 8.86655 2.93334 8.12655 3.95334 7.95988L5.54667 7.69322C5.81334 7.64655 6.13334 7.41322 6.25334 7.17322L7.13334 5.41322C7.60667 4.45322 8.39334 4.45322 8.86667 5.40655Z" fill="#F6A609"/>
<path d="M4 6.49967C3.72667 6.49967 3.5 6.27301 3.5 5.99967V1.33301C3.5 1.05967 3.72667 0.833008 4 0.833008C4.27333 0.833008 4.5 1.05967 4.5 1.33301V5.99967C4.5 6.27301 4.27333 6.49967 4 6.49967Z" fill="#F6A609"/>
<path d="M12 6.49967C11.7267 6.49967 11.5 6.27301 11.5 5.99967V1.33301C11.5 1.05967 11.7267 0.833008 12 0.833008C12.2733 0.833008 12.5 1.05967 12.5 1.33301V5.99967C12.5 6.27301 12.2733 6.49967 12 6.49967Z" fill="#F6A609"/>
<path d="M8 3.16634C7.72667 3.16634 7.5 2.93967 7.5 2.66634V1.33301C7.5 1.05967 7.72667 0.833008 8 0.833008C8.27333 0.833008 8.5 1.05967 8.5 1.33301V2.66634C8.5 2.93967 8.27333 3.16634 8 3.16634Z" fill="#F6A609"/>
</svg>
