<?xml version="1.0" encoding="UTF-8"?>
<svg xmlns="http://www.w3.org/2000/svg" xmlns:xlink="http://www.w3.org/1999/xlink" viewBox="0 0 30 30" width="30px" height="30px">
<g id="surface30813288">
<path style=" stroke:none;fill-rule:nonzero;fill:rgb(21.568628%,21.568628%,21.568628%);fill-opacity:1;" d="M 25.378906 3.730469 C 25.015625 3.746094 24.6875 3.851562 24.394531 3.964844 C 24.125 4.070312 23.160156 4.476562 21.621094 5.121094 C 20.082031 5.765625 18.042969 6.621094 15.871094 7.535156 C 11.527344 9.363281 6.644531 11.421875 4.140625 12.472656 C 4.054688 12.507812 3.707031 12.617188 3.320312 12.910156 C 2.933594 13.207031 2.503906 13.84375 2.503906 14.546875 C 2.503906 15.109375 2.785156 15.6875 3.128906 16.015625 C 3.46875 16.34375 3.8125 16.5 4.101562 16.613281 C 4.945312 16.949219 7.554688 17.992188 8.6875 18.445312 C 9.082031 19.632812 10.015625 22.4375 10.234375 23.128906 L 10.230469 23.128906 C 10.410156 23.6875 10.582031 24.054688 10.824219 24.359375 C 10.941406 24.511719 11.085938 24.652344 11.261719 24.761719 C 11.328125 24.800781 11.40625 24.835938 11.480469 24.867188 C 11.488281 24.871094 11.5 24.871094 11.511719 24.875 L 11.480469 24.867188 C 11.503906 24.875 11.523438 24.890625 11.546875 24.898438 C 11.582031 24.910156 11.605469 24.910156 11.65625 24.917969 C 11.828125 24.972656 11.996094 25.007812 12.15625 25.007812 C 12.835938 25.007812 13.253906 24.640625 13.253906 24.640625 L 13.277344 24.617188 L 16.214844 22.136719 L 19.808594 25.457031 C 19.871094 25.550781 20.386719 26.246094 21.578125 26.246094 C 22.289062 26.246094 22.851562 25.898438 23.210938 25.53125 C 23.570312 25.160156 23.792969 24.785156 23.894531 24.273438 L 23.894531 24.265625 C 23.964844 23.902344 27.414062 6.582031 27.414062 6.582031 L 27.40625 6.609375 C 27.515625 6.132812 27.546875 5.671875 27.417969 5.199219 C 27.292969 4.730469 26.953125 4.269531 26.539062 4.027344 C 26.128906 3.785156 25.738281 3.714844 25.378906 3.730469 Z M 24.886719 6.46875 C 24.75 7.148438 21.679688 22.574219 21.480469 23.597656 L 17.910156 20.300781 C 16.988281 19.449219 15.554688 19.417969 14.601562 20.226562 L 12.777344 21.765625 L 13.75 17.96875 C 13.75 17.96875 20.453125 11.183594 20.855469 10.789062 C 21.183594 10.472656 21.25 10.363281 21.25 10.25 C 21.25 10.105469 21.175781 10 21 10 C 20.84375 10 20.632812 10.148438 20.519531 10.21875 C 19.085938 11.113281 12.9375 14.617188 9.960938 16.3125 C 9.847656 16.242188 9.738281 16.175781 9.617188 16.125 C 8.640625 15.734375 6.761719 14.980469 5.664062 14.542969 C 8.257812 13.453125 12.703125 11.582031 16.839844 9.839844 C 19.011719 8.925781 21.050781 8.070312 22.589844 7.425781 C 23.886719 6.882812 24.5625 6.601562 24.886719 6.46875 Z M 21.441406 23.78125 C 21.441406 23.78125 21.441406 23.789062 21.441406 23.789062 C 21.441406 23.777344 21.4375 23.785156 21.441406 23.78125 Z M 21.441406 23.78125 "/>
</g>
</svg>
