<svg width="34" height="34" viewBox="0 0 34 34" fill="none" xmlns="http://www.w3.org/2000/svg">
<path fill-rule="evenodd" clip-rule="evenodd" d="M27.5407 6.44812C26.1654 5.07222 24.5316 3.98193 22.7333 3.24C20.935 2.49807 19.0078 2.11915 17.0624 2.12507C8.89844 2.12507 2.2525 8.7378 2.24918 16.8673C2.24557 19.4559 2.92791 21.9992 4.22676 24.2383L2.125 31.8751L9.97754 29.8251C12.1512 31.0026 14.5844 31.6189 17.0564 31.6181H17.0624C25.2257 31.6181 31.871 25.0047 31.875 16.8759C31.8799 14.9372 31.4993 13.0169 30.7552 11.2267C30.0111 9.43646 28.9184 7.8121 27.5407 6.44812ZM17.0624 29.1298H17.0571C14.8533 29.1305 12.6896 28.5407 10.791 27.4219L10.3414 27.1562L5.68172 28.3728L6.92551 23.8512L6.63266 23.3864C5.40041 21.4355 4.74755 19.1747 4.75004 16.8673C4.75004 10.1117 10.2757 4.6153 17.0671 4.6153C20.325 4.60948 23.4517 5.89796 25.7597 8.19734C28.0677 10.4967 29.3678 13.6187 29.3741 16.8766C29.3715 23.6327 23.8485 29.1298 17.0624 29.1298ZM23.8153 19.9532C23.4454 19.7685 21.6239 18.8774 21.2865 18.7545C20.9492 18.6317 20.7002 18.5699 20.4538 18.9391C20.2074 19.3083 19.4975 20.1344 19.2817 20.3835C19.0659 20.6325 18.8501 20.6597 18.4802 20.4751C18.1103 20.2905 16.917 19.902 15.5032 18.6469C14.4029 17.6701 13.6604 16.4642 13.4446 16.0956C13.2288 15.7271 13.4214 15.5272 13.6066 15.3439C13.7733 15.1785 13.9765 14.9136 14.1618 14.6984C14.3471 14.4833 14.4088 14.3292 14.5317 14.0835C14.6545 13.8378 14.5934 13.6226 14.5011 13.4387C14.4088 13.2548 13.6684 11.4412 13.3603 10.7034C13.0595 9.98491 12.7546 10.0825 12.5275 10.0712C12.3117 10.0606 12.0627 10.058 11.8177 10.058C11.6303 10.0628 11.446 10.1063 11.2762 10.1856C11.1065 10.2649 10.9548 10.3783 10.8309 10.5188C10.4915 10.888 9.53527 11.7805 9.53527 13.5921C9.53527 15.4037 10.8634 17.1568 11.0467 17.4025C11.23 17.6482 13.6564 21.3689 17.3692 22.9647C18.0586 23.2599 18.7631 23.5188 19.4796 23.7403C20.3661 24.0205 21.173 23.9814 21.8105 23.8864C22.5217 23.7808 24.0019 22.9952 24.3093 22.1346C24.6168 21.274 24.6175 20.5369 24.5252 20.3835C24.4329 20.2301 24.1858 20.1371 23.8153 19.9532Z" fill="#373737"/>
</svg>
